<svg xmlns="http://www.w3.org/2000/svg" width="228" height="261" viewBox="0 0 228 261" fill="none">
  <defs>
    <filter id="glow-betting" x="-20%" y="-20%" width="140%" height="140%">
      <feGaussianBlur stdDeviation="2.2" result="blur"/>
      <feMerge>
        <feMergeNode in="blur"/>
        <feMergeNode in="SourceGraphic"/>
      </feMerge>
    </filter>
  </defs>
  <path d="M 145 246 L 149 245 L 150 247 L 158 245 Z M 39 30 L 42 44 L 28 55 L 38 53 L 40 57 L 25 62 L 42 57 L 44 60 L 33 75 L 29 95 L 24 100 L 23 94 L 17 101 L 23 112 L 18 117 L 0 119 L 10 128 L 0 142 L 0 163 L 6 166 L 0 167 L 0 176 L 8 194 L 0 201 L 0 219 L 5 208 L 11 209 L 10 214 L 15 217 L 27 210 L 38 217 L 44 215 L 48 225 L 51 219 L 51 232 L 55 222 L 56 228 L 77 233 L 99 227 L 89 233 L 95 233 L 95 243 L 161 244 L 163 253 L 166 244 L 169 249 L 185 248 L 176 245 L 207 247 L 222 241 L 214 232 L 221 228 L 221 219 L 227 217 L 227 210 L 217 206 L 226 202 L 218 198 L 227 197 L 227 183 L 222 176 L 227 175 L 227 111 L 222 105 L 227 104 L 223 78 L 227 72 L 223 68 L 226 65 L 218 63 L 219 56 L 213 56 L 201 34 L 206 31 L 190 23 L 193 17 L 163 10 L 98 11 L 59 17 Z M 181 238 L 182 236 L 186 237 L 189 236 L 191 238 Z M 171 237 L 172 235 L 176 236 L 177 235 L 181 237 Z M 131 216 L 138 216 L 133 218 Z M 219 213 L 221 216 L 219 218 Z M 130 208 L 134 205 L 139 206 L 141 208 Z M 7 205 L 2 206 L 0 205 L 2 203 L 4 204 L 5 202 Z M 214 197 L 215 201 L 214 203 Z M 107 199 L 108 197 L 116 199 L 114 201 L 109 201 Z M 100 196 L 102 197 L 102 201 L 98 198 Z M 16 197 L 19 197 L 18 200 Z M 4 170 L 4 176 L 2 174 Z M 222 169 L 226 174 L 223 174 L 222 176 L 219 173 L 219 171 Z M 218 163 L 220 165 L 220 167 L 218 171 Z M 24 107 L 25 105 L 27 107 Z M 217 77 L 220 80 L 218 83 L 216 82 L 214 79 Z M 211 69 L 213 67 L 218 69 L 221 68 L 224 71 L 219 72 L 218 71 L 213 71 Z M 45 56 L 47 58 L 46 67 L 44 65 L 43 58 Z M 80 52 L 85 52 L 83 55 Z M 79 49 L 80 51 L 78 53 L 78 54 L 75 53 Z M 145 48 L 147 51 L 144 50 Z M 138 48 L 138 51 L 133 54 L 131 53 L 131 49 L 132 50 Z M 121 48 L 121 52 L 118 51 Z M 86 48 L 89 48 L 89 52 L 86 50 Z M 81 46 L 82 48 L 80 50 L 79 48 Z M 45 46 L 47 48 L 45 50 Z M 43 46 L 44 48 L 40 49 Z M 110 52 L 108 52 L 105 54 L 101 51 L 95 52 L 94 53 L 92 53 L 90 51 L 92 49 L 95 50 L 95 48 L 99 49 L 103 48 L 104 45 L 106 46 L 107 48 L 109 48 Z M 57 42 L 58 40 L 60 42 Z M 198 36 L 199 34 L 201 36 Z M 90 34 L 101 32 L 130 32 L 146 34 Z M 52 24 L 48 28 L 47 26 Z" fill="#92ffab" fill-rule="evenodd" filter="url(#glow-betting)"/>
</svg>