<svg xmlns="http://www.w3.org/2000/svg" width="241" height="198" viewBox="0 0 241 198" fill="none">
  <defs>
    <filter id="glow-dashboard" x="-20%" y="-20%" width="140%" height="140%">
      <feGaussianBlur stdDeviation="2.2" result="blur"/>
      <feMerge>
        <feMergeNode in="blur"/>
        <feMergeNode in="SourceGraphic"/>
      </feMerge>
    </filter>
  </defs>
  <path d="M 85 189 L 139 188 L 157 189 L 158 188 L 163 188 L 152 189 L 132 189 L 127 188 L 126 189 L 118 188 L 117 189 Z M 48 188 L 48 190 L 46 191 L 46 193 L 48 194 L 49 197 L 50 189 Z M 15 189 L 20 190 L 25 189 L 26 190 L 28 190 L 30 188 Z M 232 8 L 227 17 L 221 9 L 220 18 L 193 22 L 197 27 L 191 32 L 179 32 L 185 44 L 178 53 L 181 69 L 161 81 L 162 87 L 151 79 L 152 88 L 147 82 L 124 85 L 122 79 L 112 80 L 95 103 L 101 108 L 83 125 L 78 118 L 79 127 L 61 113 L 39 114 L 42 119 L 23 144 L 12 148 L 10 185 L 193 187 L 165 189 L 219 189 L 222 197 L 222 188 L 232 181 L 217 173 L 212 178 L 210 166 L 206 177 L 197 172 L 193 179 L 189 166 L 186 179 L 175 178 L 185 176 L 176 170 L 160 178 L 141 171 L 124 175 L 122 166 L 118 179 L 113 171 L 88 174 L 86 160 L 114 125 L 116 109 L 121 110 L 122 145 L 125 109 L 129 120 L 152 131 L 154 140 L 160 123 L 159 128 L 170 118 L 179 119 L 181 115 L 173 118 L 186 94 L 191 108 L 192 84 L 202 83 L 208 71 L 209 85 L 212 61 L 220 63 L 215 68 L 227 61 L 235 71 L 240 68 L 240 35 L 235 34 L 240 19 L 230 18 Z M 125 178 L 126 176 L 128 178 Z M 15 170 L 12 175 L 11 171 Z M 90 149 L 91 151 L 88 155 L 82 156 L 82 152 L 86 153 Z M 93 145 L 94 147 L 91 150 L 90 148 Z M 48 146 L 46 175 L 44 177 L 43 174 L 39 170 L 36 169 L 35 165 L 36 164 L 36 161 L 44 154 L 45 152 L 44 147 Z M 64 146 L 65 144 L 67 146 Z M 46 139 L 55 140 L 63 147 L 57 149 L 59 150 L 60 153 L 70 153 L 71 152 L 74 152 L 81 155 L 83 157 L 85 161 L 85 177 L 81 178 L 81 175 L 80 173 L 78 172 L 71 173 L 61 173 L 57 172 L 52 176 L 50 174 L 49 166 L 50 144 L 44 142 L 46 140 Z M 102 131 L 103 133 L 100 137 L 99 134 Z M 104 128 L 105 130 L 103 132 L 102 130 Z M 56 119 L 57 117 L 59 119 Z M 52 117 L 53 115 L 56 117 Z M 141 106 L 152 106 L 154 108 L 143 108 Z M 238 27 L 233 29 L 228 29 L 226 27 L 234 25 L 236 25 Z M 228 23 L 227 21 L 229 20 Z" fill="#92ffab" fill-rule="evenodd" filter="url(#glow-dashboard)"/>
</svg>