<svg xmlns="http://www.w3.org/2000/svg" width="188" height="214" viewBox="0 0 188 214" fill="none">
  <defs>
    <filter id="glow-matchup" x="-20%" y="-20%" width="140%" height="140%">
      <feGaussianBlur stdDeviation="2.2" result="blur"/>
      <feMerge>
        <feMergeNode in="blur"/>
        <feMergeNode in="SourceGraphic"/>
      </feMerge>
    </filter>
  </defs>
  <path d="M 35 200 L 33 203 L 30 203 L 30 205 L 32 207 L 33 211 L 37 210 L 36 202 Z M 118 52 L 115 50 L 114 52 L 112 50 L 109 52 L 106 52 L 102 54 L 101 56 L 101 60 L 99 63 L 99 65 L 101 65 L 101 69 L 104 69 L 110 63 L 112 63 L 115 60 L 116 57 L 117 57 Z M 102 59 L 103 57 L 106 59 L 104 60 Z M 133 43 L 134 45 L 141 52 L 140 56 L 142 59 L 146 63 L 148 63 L 150 66 L 154 69 L 156 69 L 158 66 L 155 61 L 157 60 L 157 58 L 155 54 L 149 52 L 147 50 L 143 51 L 135 43 Z M 150 60 L 153 63 L 151 64 L 149 62 Z M 155 56 L 156 60 L 154 58 Z M 153 53 L 155 56 L 152 56 Z M 150 53 L 151 51 L 153 53 Z M 134 36 L 131 36 L 119 49 L 121 49 Z M 157 14 L 155 12 L 150 16 L 146 15 L 141 22 L 140 22 L 139 25 L 140 27 L 137 30 L 136 33 L 139 32 L 141 30 L 146 30 L 148 28 L 148 27 L 152 24 L 152 22 L 151 24 L 150 21 L 155 17 Z M 146 26 L 147 24 L 150 24 L 149 26 Z M 104 12 L 101 15 L 107 20 L 104 23 L 106 25 L 109 26 L 112 30 L 116 29 L 125 37 L 125 35 L 117 27 L 120 25 L 116 20 L 116 19 L 112 15 L 108 16 L 106 13 Z M 28 10 L 24 24 L 34 37 L 21 60 L 21 68 L 27 73 L 0 72 L 0 149 L 4 152 L 0 152 L 6 155 L 6 162 L 14 165 L 21 187 L 28 190 L 11 191 L 35 194 L 44 213 L 46 209 L 57 211 L 48 213 L 67 213 L 61 210 L 74 205 L 69 212 L 83 201 L 91 204 L 88 212 L 97 198 L 99 208 L 107 212 L 141 213 L 164 205 L 162 201 L 171 191 L 176 196 L 173 199 L 183 194 L 187 197 L 185 192 L 172 189 L 186 179 L 183 153 L 174 150 L 179 138 L 182 145 L 187 145 L 186 126 L 181 138 L 176 127 L 181 121 L 187 122 L 187 115 L 183 117 L 183 110 L 166 103 L 187 99 L 176 96 L 177 89 L 167 78 L 138 72 L 123 73 L 118 86 L 117 75 L 100 76 L 96 81 L 98 73 L 94 72 L 82 79 L 36 75 L 41 65 L 56 65 L 75 73 L 89 65 L 85 56 L 70 43 L 85 22 L 75 10 L 80 10 L 54 20 Z M 139 212 L 134 212 L 137 211 Z M 176 193 L 178 196 L 175 195 Z M 108 191 L 110 189 L 118 190 L 122 189 L 123 191 L 128 191 L 125 193 L 121 193 L 120 192 L 110 193 Z M 73 194 L 74 191 L 78 190 L 76 192 L 77 193 L 76 195 L 81 193 L 87 194 L 89 196 L 83 198 L 75 198 L 73 196 Z M 29 189 L 31 192 L 28 191 Z M 94 192 L 82 191 L 79 189 L 93 188 Z M 169 186 L 170 188 L 167 193 L 168 195 L 165 196 L 163 200 L 156 203 L 163 196 L 167 188 Z M 177 185 L 178 183 L 181 184 Z M 54 173 L 56 175 L 55 177 L 52 179 L 50 185 L 47 189 L 48 177 L 53 176 Z M 168 123 L 167 126 L 168 132 L 165 135 L 163 135 L 160 132 L 161 131 L 160 129 L 158 128 L 161 126 L 162 124 Z M 178 118 L 180 120 L 178 122 Z M 82 79 L 82 84 L 80 82 Z M 72 70 L 74 68 L 76 70 L 81 70 L 79 72 L 76 73 Z M 78 64 L 78 66 L 75 66 Z M 66 62 L 67 60 L 69 62 Z M 42 61 L 48 62 L 44 63 Z M 40 63 L 36 63 Z M 80 60 L 81 58 L 83 60 Z M 26 59 L 28 57 L 30 59 Z M 69 55 L 72 61 L 68 57 Z M 55 55 L 58 62 L 54 58 Z M 40 52 L 42 51 L 47 56 L 45 58 Z M 69 53 L 75 51 L 75 54 L 77 55 L 78 57 L 76 58 L 72 54 Z M 55 50 L 57 52 L 56 56 L 55 53 L 52 52 Z M 71 49 L 64 56 L 64 52 L 67 49 Z M 38 47 L 40 52 L 36 49 Z M 45 45 L 48 45 L 50 48 L 47 52 L 43 47 Z M 60 43 L 63 47 L 61 51 L 57 48 L 57 46 L 59 45 Z M 64 43 L 65 41 L 67 43 Z M 44 32 L 45 34 L 47 35 L 47 32 L 50 32 L 51 34 L 47 38 L 42 34 Z M 81 25 L 80 27 L 75 31 L 74 29 L 78 25 Z M 67 25 L 54 38 L 53 36 Z M 73 19 L 75 17 L 78 18 Z" fill="#93fca9" fill-rule="evenodd" filter="url(#glow-matchup)"/>
  <path d="M 142 59 L 144 61 L 145 60 L 146 63 L 149 65 L 150 64 L 154 67 L 154 69 L 156 67 L 157 64 L 154 61 L 156 60 L 154 61 L 151 59 L 153 60 L 155 64 L 157 65 L 153 65 L 148 59 L 145 59 L 144 61 Z M 115 60 L 113 60 L 110 62 L 113 62 L 111 64 L 108 63 L 108 61 L 111 58 L 109 60 L 103 62 L 101 64 L 101 67 L 103 65 L 104 69 L 108 63 L 111 64 Z M 39 56 L 37 56 L 37 58 L 35 58 L 32 63 L 31 62 L 28 64 L 30 66 L 31 66 L 32 68 L 33 66 L 28 64 Z M 141 54 L 147 53 L 148 51 L 150 55 L 153 56 L 154 58 L 153 55 L 147 50 L 145 50 L 143 52 L 141 57 L 143 56 L 141 57 Z M 111 50 L 108 53 L 106 52 L 104 55 L 105 56 L 103 57 L 102 59 L 106 58 L 104 57 Z M 157 15 L 151 21 L 148 18 L 150 16 L 151 17 L 155 14 L 153 15 L 152 14 L 148 16 L 147 18 L 145 18 L 145 16 L 144 21 L 141 23 L 141 21 L 139 23 L 141 23 L 142 26 L 144 26 L 146 23 L 148 25 L 143 29 L 144 30 L 146 28 L 146 30 L 151 25 L 152 20 Z M 151 21 L 150 23 L 147 22 Z M 101 15 L 108 24 L 110 21 L 111 24 L 108 26 L 112 27 L 117 31 L 114 28 L 119 28 L 117 26 L 118 24 L 120 24 L 118 22 L 117 24 L 114 20 L 111 22 L 112 17 L 114 17 L 111 15 L 113 16 L 112 19 L 110 21 L 108 18 L 110 17 L 107 17 L 103 14 L 105 15 L 104 18 Z M 113 24 L 113 28 L 111 26 Z M 108 18 L 108 23 L 106 20 Z M 27 11 L 40 14 L 54 30 L 50 34 L 46 26 L 34 17 L 31 22 L 30 18 L 47 37 L 42 38 L 29 23 L 33 31 L 26 24 L 26 19 L 24 21 L 39 38 L 30 45 L 32 52 L 22 61 L 24 68 L 29 70 L 24 67 L 27 66 L 26 58 L 40 51 L 51 59 L 45 62 L 42 58 L 32 70 L 52 61 L 76 70 L 65 58 L 59 62 L 56 47 L 60 51 L 64 47 L 67 49 L 58 53 L 60 57 L 68 55 L 76 63 L 75 67 L 78 63 L 70 53 L 80 58 L 84 66 L 79 67 L 80 62 L 77 68 L 83 68 L 84 59 L 75 45 L 75 50 L 67 56 L 65 54 L 73 48 L 67 49 L 61 43 L 73 45 L 70 37 L 84 22 L 81 14 L 80 27 L 73 32 L 77 24 L 49 53 L 47 50 L 77 18 L 73 17 L 46 42 L 44 48 L 50 58 L 42 46 L 42 49 L 35 46 L 40 51 L 37 53 L 31 46 L 36 42 L 40 45 L 69 13 L 74 13 L 67 12 L 51 24 L 40 12 Z M 44 51 L 48 55 L 46 56 L 43 53 Z M 40 51 L 42 49 L 44 51 Z M 61 43 L 64 46 L 62 47 L 60 45 Z" fill="#f7d597" fill-rule="evenodd" filter="url(#glow-matchup)"/>
</svg>