<svg xmlns="http://www.w3.org/2000/svg" width="220" height="208" viewBox="0 0 220 208" fill="none">
  <defs>
    <filter id="glow-matches" x="-20%" y="-20%" width="140%" height="140%">
      <feGaussianBlur stdDeviation="2.2" result="blur"/>
      <feMerge>
        <feMergeNode in="blur"/>
        <feMergeNode in="SourceGraphic"/>
      </feMerge>
    </filter>
  </defs>
  <path d="M 28 185 L 26 185 L 27 196 Z M 211 165 L 209 173 L 213 169 Z M 121 155 L 119 154 L 115 154 L 113 152 L 111 152 L 110 156 L 105 156 L 103 158 L 103 160 L 119 160 L 119 157 L 121 157 Z M 1 30 L 0 70 L 15 73 L 18 79 L 8 97 L 16 110 L 0 111 L 0 117 L 9 114 L 0 120 L 12 134 L 7 134 L 0 144 L 5 158 L 0 162 L 8 167 L 10 164 L 19 179 L 31 184 L 42 180 L 55 167 L 84 166 L 55 164 L 61 155 L 68 159 L 82 158 L 67 155 L 71 155 L 69 151 L 96 148 L 101 141 L 120 144 L 131 151 L 155 152 L 156 156 L 149 158 L 162 161 L 179 183 L 199 185 L 211 156 L 212 161 L 216 156 L 212 154 L 216 140 L 212 128 L 216 125 L 208 115 L 216 111 L 204 109 L 214 103 L 207 102 L 204 94 L 207 89 L 201 77 L 205 75 L 189 64 L 195 58 L 189 56 L 192 54 L 161 42 L 126 51 L 92 51 L 74 43 L 59 42 L 54 43 L 60 44 L 44 46 L 34 54 L 31 63 L 8 69 L 3 64 L 12 64 L 2 51 L 6 39 Z M 194 172 L 197 174 L 195 176 L 193 174 Z M 36 172 L 37 170 L 39 172 Z M 198 167 L 195 170 L 194 167 Z M 47 161 L 48 163 L 46 165 L 45 163 Z M 37 161 L 39 159 L 41 162 Z M 32 154 L 37 158 L 34 159 L 31 156 Z M 177 154 L 176 156 L 176 159 L 173 155 Z M 6 151 L 9 154 L 5 153 Z M 0 154 L 1 151 L 4 153 Z M 65 147 L 65 150 L 64 152 L 63 149 Z M 9 144 L 8 150 L 0 148 L 3 146 L 8 147 Z M 211 142 L 214 145 L 213 149 L 210 148 Z M 84 140 L 82 142 L 79 141 L 82 139 Z M 75 136 L 77 138 L 76 141 L 72 138 Z M 38 135 L 40 138 L 43 140 L 45 147 L 44 151 L 42 150 L 38 151 L 37 154 L 34 154 L 33 153 L 29 154 L 26 151 L 35 161 L 46 166 L 39 172 L 39 170 L 37 168 L 35 168 L 32 171 L 30 171 L 31 174 L 23 171 L 26 171 L 27 169 L 27 162 L 26 160 L 22 157 L 24 156 L 24 154 L 19 150 L 17 152 L 18 144 L 24 149 L 21 145 L 22 142 L 24 144 L 24 145 L 27 146 L 26 144 L 28 144 L 28 142 L 30 143 L 31 138 L 35 140 L 35 137 Z M 200 126 L 201 132 L 203 134 L 204 141 L 203 153 L 202 151 L 200 150 L 201 141 L 200 136 L 197 130 L 198 127 Z M 11 123 L 13 126 L 9 130 L 7 128 L 6 125 L 8 123 Z M 62 122 L 58 123 L 53 132 L 51 134 L 43 136 L 35 132 L 33 134 L 29 134 L 28 133 L 22 134 L 21 136 L 19 134 L 20 130 L 22 128 L 22 126 L 25 122 L 33 121 L 41 118 L 51 117 L 51 120 L 44 122 L 50 122 L 52 123 L 52 121 L 60 120 Z M 104 110 L 107 108 L 115 111 Z M 195 106 L 197 108 L 199 118 L 196 118 L 194 115 L 193 108 Z M 25 118 L 25 116 L 27 112 L 27 109 L 29 105 L 36 105 L 40 107 L 45 106 L 48 109 L 39 110 L 38 111 L 30 111 L 29 113 L 30 116 L 36 114 L 40 118 L 27 120 Z M 27 101 L 24 115 L 22 117 L 21 114 L 22 113 L 24 105 Z M 91 99 L 96 100 L 94 101 L 96 102 L 93 103 L 91 102 Z M 120 101 L 118 105 L 113 107 L 103 107 L 97 105 L 95 103 L 95 101 L 97 99 L 101 98 L 105 98 L 107 99 L 113 97 L 114 100 L 118 99 Z M 80 97 L 80 100 L 77 99 Z M 188 96 L 190 98 L 193 119 L 195 124 L 199 146 L 199 162 L 196 165 L 191 166 L 187 163 L 180 164 L 177 161 L 180 158 L 182 159 L 182 155 L 179 154 L 181 152 L 190 150 L 194 146 L 191 149 L 172 153 L 170 151 L 171 147 L 172 149 L 173 145 L 166 140 L 166 137 L 168 135 L 164 130 L 165 123 L 164 121 L 168 117 L 170 118 L 173 115 L 174 117 L 179 118 L 179 120 L 183 118 L 182 113 L 184 114 L 184 112 L 174 112 L 169 115 L 169 112 L 172 111 L 175 107 L 176 109 L 186 108 L 188 106 L 188 102 L 184 98 Z M 89 97 L 101 97 L 96 99 L 91 99 Z M 195 95 L 196 98 L 194 100 L 193 96 Z M 109 90 L 113 88 L 115 91 L 113 93 Z M 100 89 L 102 88 L 105 92 L 102 92 Z M 109 88 L 108 91 L 105 89 Z M 29 87 L 30 92 L 28 95 L 26 95 L 27 89 Z M 31 79 L 32 82 L 30 84 L 30 81 Z M 189 78 L 191 82 L 190 85 L 188 80 Z M 78 76 L 79 78 L 77 80 L 75 77 Z M 89 75 L 90 73 L 120 76 L 91 77 Z M 70 73 L 71 71 L 74 71 L 82 74 L 81 77 Z M 128 69 L 130 72 L 127 71 Z M 150 69 L 149 72 L 141 71 L 139 73 L 142 69 L 146 67 L 148 67 Z M 120 66 L 122 66 L 123 69 L 119 68 Z M 169 67 L 170 65 L 172 67 Z M 164 66 L 166 64 L 169 66 Z M 62 65 L 68 64 L 72 66 L 72 64 L 81 66 L 78 68 L 72 69 L 65 67 Z M 90 65 L 92 63 L 97 65 L 115 64 L 118 68 L 111 67 L 90 67 Z M 57 63 L 61 62 L 63 64 L 59 65 Z M 54 62 L 58 62 L 56 64 Z M 123 61 L 124 59 L 131 60 L 130 63 Z M 49 56 L 45 59 L 45 56 Z M 139 51 L 139 54 L 136 53 Z M 104 53 L 105 51 L 124 52 L 134 54 Z M 72 48 L 75 48 L 76 54 L 74 52 Z M 160 44 L 164 43 L 165 44 L 170 45 L 162 46 Z M 0 21 L 0 26 L 2 28 L 5 29 L 8 27 L 7 23 L 5 23 L 4 21 Z M 2 15 L 4 13 L 3 12 L 5 11 L 4 8 L 3 11 L 0 9 L 1 5 Z" fill="#92ffab" fill-rule="evenodd" filter="url(#glow-matches)"/>
</svg>