<svg xmlns="http://www.w3.org/2000/svg" width="207" height="245" viewBox="0 0 207 245" fill="none">
  <defs>
    <filter id="glow-players" x="-20%" y="-20%" width="140%" height="140%">
      <feGaussianBlur stdDeviation="2.2" result="blur"/>
      <feMerge>
        <feMergeNode in="blur"/>
        <feMergeNode in="SourceGraphic"/>
      </feMerge>
    </filter>
  </defs>
  <path d="M 61 231 L 74 232 L 81 231 L 79 230 L 74 230 L 69 232 L 64 230 Z M 5 229 L 6 232 L 33 231 L 27 230 L 17 231 Z M 99 201 L 100 203 L 105 203 L 108 202 L 101 200 Z M 147 190 L 149 190 L 153 193 L 158 193 L 157 189 L 154 188 L 152 186 L 150 186 Z M 200 164 L 200 166 L 201 167 L 201 171 L 204 172 L 206 175 L 206 172 L 204 170 L 206 168 L 205 163 Z M 206 131 L 206 135 L 203 138 L 204 147 L 201 150 L 198 151 L 202 153 L 204 156 L 202 158 L 197 156 L 193 156 L 195 157 L 200 157 L 204 158 L 206 160 Z M 36 27 L 26 54 L 32 67 L 24 74 L 29 82 L 20 92 L 20 128 L 41 139 L 33 155 L 13 160 L 15 165 L 0 177 L 0 227 L 5 192 L 54 168 L 64 179 L 87 188 L 156 177 L 165 182 L 167 192 L 182 197 L 172 199 L 174 217 L 165 233 L 166 223 L 153 217 L 150 223 L 150 216 L 134 220 L 140 223 L 136 228 L 130 220 L 121 220 L 119 231 L 130 233 L 8 234 L 4 239 L 190 239 L 194 219 L 196 232 L 202 227 L 196 220 L 206 209 L 206 196 L 193 193 L 199 191 L 191 177 L 196 174 L 188 167 L 195 163 L 150 154 L 154 148 L 156 153 L 164 151 L 151 145 L 144 132 L 147 118 L 160 116 L 154 112 L 166 93 L 157 75 L 160 66 L 148 50 L 154 50 L 152 37 L 122 4 L 82 0 Z M 150 224 L 150 229 L 148 226 Z M 174 223 L 175 227 L 172 227 L 172 225 Z M 143 222 L 142 225 L 140 223 Z M 197 200 L 199 203 L 196 202 Z M 14 182 L 16 180 L 19 181 L 17 182 Z M 127 178 L 129 180 L 127 182 L 125 180 Z M 18 180 L 20 178 L 23 179 L 21 180 Z M 63 170 L 68 175 L 66 176 L 62 172 Z M 133 168 L 135 170 L 134 173 L 132 173 L 126 177 L 124 174 L 125 172 L 128 169 Z M 130 164 L 135 164 L 137 166 L 134 167 Z M 88 162 L 90 161 L 94 164 L 91 166 Z M 90 159 L 99 159 L 96 161 Z M 139 155 L 142 159 L 138 158 Z M 143 155 L 144 153 L 146 154 L 147 153 L 149 155 Z M 131 155 L 133 153 L 138 154 L 137 157 L 135 157 Z M 42 135 L 43 137 L 47 137 L 47 139 L 45 141 L 42 139 Z M 31 121 L 33 119 L 37 119 L 39 120 L 40 122 L 38 124 L 34 124 L 32 123 Z M 93 61 L 107 62 L 111 64 L 110 67 L 106 67 L 100 71 L 102 70 L 106 71 L 109 75 L 108 76 L 115 82 L 117 87 L 117 90 L 119 93 L 118 105 L 121 112 L 113 117 L 112 122 L 109 126 L 109 130 L 106 133 L 104 133 L 102 136 L 100 135 L 98 137 L 96 137 L 94 135 L 84 136 L 80 133 L 77 127 L 77 124 L 74 120 L 76 118 L 77 119 L 79 118 L 78 116 L 71 115 L 71 112 L 68 109 L 68 103 L 71 95 L 67 91 L 67 87 L 69 83 L 75 82 L 76 79 L 75 78 L 78 77 L 81 78 L 87 74 L 84 74 L 82 72 L 83 70 L 81 65 L 84 63 Z M 150 47 L 151 45 L 153 47 Z M 137 45 L 139 47 L 138 50 L 137 48 Z M 125 25 L 123 29 L 123 27 Z M 114 19 L 116 18 L 118 20 L 116 21 Z M 72 31 L 74 29 L 76 29 L 76 26 L 74 25 L 74 22 L 76 20 L 81 18 L 84 19 L 94 18 L 112 21 L 119 24 L 122 28 L 117 34 L 114 35 L 110 39 L 106 38 L 104 41 L 97 44 L 91 44 L 88 43 L 87 44 L 85 44 L 84 43 L 81 43 L 73 35 Z M 131 17 L 132 15 L 134 17 Z M 60 15 L 61 17 L 59 19 L 58 17 Z M 81 16 L 82 14 L 97 14 L 99 16 L 85 16 L 84 17 Z M 90 6 L 91 4 L 93 6 Z" fill="#92ffab" fill-rule="evenodd" filter="url(#glow-players)"/>
</svg>