<svg xmlns="http://www.w3.org/2000/svg" width="190" height="252" viewBox="0 0 190 252" fill="none">
  <defs>
    <filter id="glow-rosters" x="-20%" y="-20%" width="140%" height="140%">
      <feGaussianBlur stdDeviation="2.2" result="blur"/>
      <feMerge>
        <feMergeNode in="blur"/>
        <feMergeNode in="SourceGraphic"/>
      </feMerge>
    </filter>
  </defs>
  <path d="M 180 72 L 181 90 L 180 92 L 181 95 L 183 94 L 181 93 L 183 90 L 184 92 L 186 92 L 184 90 L 186 89 L 186 87 L 183 86 L 183 81 L 181 77 L 183 76 L 183 74 Z M 179 56 L 179 65 L 180 68 L 182 65 L 182 60 Z M 162 37 L 164 38 L 174 48 L 172 47 L 173 45 L 170 43 L 168 43 L 168 41 Z M 34 16 L 10 40 L 14 39 L 9 48 L 9 42 L 4 48 L 5 68 L 9 50 L 9 71 L 0 72 L 5 75 L 0 77 L 0 115 L 10 117 L 0 120 L 3 126 L 0 150 L 7 150 L 3 158 L 9 154 L 7 166 L 7 160 L 3 166 L 6 170 L 0 175 L 4 183 L 1 192 L 6 195 L 2 201 L 9 200 L 3 208 L 5 216 L 13 226 L 22 229 L 16 225 L 22 224 L 24 235 L 37 240 L 43 250 L 43 247 L 143 251 L 174 247 L 182 230 L 188 229 L 184 225 L 189 211 L 185 207 L 189 206 L 182 203 L 189 203 L 186 200 L 189 170 L 181 170 L 188 166 L 177 162 L 188 155 L 177 131 L 183 131 L 177 126 L 182 126 L 179 120 L 178 125 L 177 57 L 154 32 L 163 34 L 162 27 L 149 23 L 148 26 L 137 16 L 90 15 L 133 13 L 56 10 Z M 142 248 L 140 250 L 138 248 Z M 171 238 L 168 241 L 157 240 L 162 238 L 167 239 L 169 236 Z M 183 210 L 185 216 L 183 217 L 181 215 L 181 212 Z M 9 210 L 10 216 L 12 220 L 15 223 L 13 224 L 8 218 Z M 112 204 L 113 208 L 109 207 Z M 127 201 L 128 199 L 134 199 L 136 200 L 136 203 Z M 140 198 L 140 204 L 138 201 Z M 179 195 L 181 195 L 183 200 L 180 199 L 178 197 Z M 10 196 L 9 199 L 7 197 Z M 128 189 L 131 190 L 130 191 L 131 192 L 129 193 L 127 191 Z M 131 181 L 132 183 L 130 185 L 129 183 Z M 20 182 L 19 183 L 19 187 L 17 184 Z M 10 179 L 7 193 L 8 192 L 6 184 L 6 180 Z M 128 175 L 126 179 L 128 181 L 128 186 L 124 190 L 126 202 L 116 203 L 108 201 L 111 196 L 109 192 L 107 192 L 106 199 L 108 201 L 97 206 L 92 205 L 93 203 L 83 204 L 74 201 L 64 203 L 57 202 L 52 205 L 50 203 L 36 202 L 30 198 L 30 190 L 34 186 L 83 186 L 80 189 L 35 189 L 40 189 L 42 191 L 64 191 L 67 189 L 82 190 L 83 194 L 81 197 L 85 200 L 90 198 L 87 197 L 87 191 L 90 193 L 92 190 L 86 188 L 89 186 L 89 181 L 93 180 L 94 178 L 95 180 L 102 182 L 102 176 L 105 177 L 107 181 L 108 177 L 110 176 L 125 176 L 127 173 Z M 99 174 L 106 174 L 104 176 L 102 176 Z M 126 173 L 122 176 L 118 175 L 111 175 L 113 173 L 122 173 L 125 171 Z M 9 168 L 10 176 L 8 178 L 7 175 L 8 174 L 7 171 Z M 31 167 L 34 167 L 33 171 L 35 173 L 33 174 L 30 171 Z M 18 164 L 20 167 L 20 169 L 18 171 Z M 127 159 L 131 162 L 129 163 L 127 162 Z M 125 158 L 125 161 L 121 162 L 116 160 Z M 21 159 L 25 161 L 23 161 Z M 18 156 L 20 158 L 20 160 L 18 163 Z M 32 153 L 32 158 L 29 156 L 31 155 Z M 183 148 L 184 150 L 183 153 L 181 150 Z M 19 147 L 20 153 L 18 155 L 17 149 Z M 8 134 L 10 136 L 8 141 L 5 137 Z M 18 133 L 21 137 L 20 139 L 17 139 Z M 132 120 L 132 117 L 135 118 L 141 118 L 140 121 L 138 120 L 134 121 Z M 127 119 L 125 121 L 120 120 L 126 117 Z M 27 117 L 32 116 L 34 118 L 29 119 Z M 18 114 L 25 119 L 17 120 Z M 81 97 L 82 95 L 84 95 L 88 97 Z M 18 93 L 20 103 L 17 105 Z M 168 89 L 170 91 L 169 103 L 166 93 L 163 94 L 163 92 L 165 90 L 167 91 Z M 103 87 L 105 89 L 103 92 Z M 91 86 L 91 90 L 89 88 Z M 96 86 L 95 89 L 93 87 Z M 32 86 L 34 84 L 36 84 L 37 88 L 34 88 Z M 95 83 L 94 85 L 88 87 L 88 90 L 83 92 L 82 87 L 83 84 L 85 82 L 89 81 L 90 83 L 93 81 Z M 74 84 L 73 89 L 69 90 L 67 89 L 66 87 L 64 87 L 63 88 L 57 88 L 58 85 L 62 82 L 67 81 L 72 82 Z M 8 78 L 10 80 L 8 82 Z M 169 77 L 169 83 L 167 81 L 167 79 Z M 71 79 L 72 77 L 74 77 L 79 81 L 75 81 Z M 18 77 L 20 80 L 17 89 Z M 134 80 L 123 79 L 131 78 L 133 76 Z M 28 76 L 31 74 L 32 78 Z M 10 75 L 9 78 L 7 76 Z M 101 71 L 100 74 L 98 72 Z M 154 69 L 156 71 L 153 73 Z M 108 71 L 109 69 L 114 69 L 120 73 L 110 73 Z M 169 66 L 168 74 L 163 72 L 165 68 L 166 70 L 168 70 L 167 68 Z M 73 46 L 82 46 L 80 48 L 75 48 Z M 17 47 L 19 45 L 25 45 L 27 47 L 20 48 L 21 53 L 26 48 L 31 48 L 32 45 L 36 46 L 34 47 L 34 50 L 39 49 L 38 53 L 44 49 L 47 49 L 48 51 L 53 49 L 55 52 L 54 55 L 51 56 L 51 58 L 53 57 L 54 58 L 55 56 L 58 56 L 58 58 L 61 57 L 57 49 L 58 51 L 60 51 L 61 49 L 64 51 L 66 48 L 68 50 L 75 48 L 87 49 L 89 50 L 88 51 L 90 53 L 91 52 L 93 59 L 92 61 L 88 62 L 88 65 L 93 66 L 98 72 L 93 75 L 91 81 L 81 79 L 85 78 L 85 76 L 70 76 L 69 81 L 66 79 L 59 81 L 55 80 L 56 85 L 54 85 L 51 89 L 47 87 L 45 90 L 39 88 L 42 87 L 40 85 L 32 82 L 32 79 L 36 81 L 35 76 L 42 76 L 41 74 L 38 74 L 36 71 L 31 73 L 22 72 L 18 74 Z M 127 41 L 127 44 L 124 43 Z M 127 38 L 127 41 L 124 40 Z M 141 35 L 143 37 L 140 40 Z M 16 37 L 17 35 L 20 35 L 24 37 Z M 26 36 L 27 34 L 29 36 Z M 78 25 L 79 23 L 84 24 L 133 23 L 135 25 L 125 25 L 122 27 Z M 48 13 L 48 16 L 43 15 Z" fill="#92ffab" fill-rule="evenodd" filter="url(#glow-rosters)"/>
</svg>