<svg xmlns="http://www.w3.org/2000/svg" width="236" height="240" viewBox="0 0 236 240" fill="none">
  <defs>
    <filter id="glow-settings" x="-20%" y="-20%" width="140%" height="140%">
      <feGaussianBlur stdDeviation="2.2" result="blur"/>
      <feMerge>
        <feMergeNode in="blur"/>
        <feMergeNode in="SourceGraphic"/>
      </feMerge>
    </filter>
  </defs>
  <path d="M 22 100 L 20 100 L 16 103 Z M 162 89 L 164 92 L 164 94 L 166 96 L 166 98 L 169 102 L 167 98 L 168 96 L 164 92 L 164 90 Z M 172 52 L 174 50 L 175 51 L 179 51 L 179 53 L 182 52 L 184 50 L 189 56 L 181 46 L 177 47 Z M 141 30 L 142 32 L 142 36 L 144 37 L 147 37 L 160 44 L 168 38 L 160 43 L 154 41 L 153 39 L 150 39 L 143 35 L 143 32 Z M 105 12 L 98 13 L 94 36 L 90 37 L 96 15 L 85 38 L 73 42 L 63 37 L 66 42 L 51 34 L 30 56 L 38 43 L 24 63 L 34 68 L 42 84 L 35 75 L 26 101 L 32 101 L 35 95 L 36 100 L 15 107 L 14 104 L 9 108 L 10 114 L 1 119 L 10 119 L 9 130 L 7 126 L 4 130 L 10 131 L 0 133 L 0 143 L 7 141 L 12 149 L 30 156 L 25 160 L 30 168 L 27 185 L 33 186 L 30 194 L 29 190 L 19 193 L 26 193 L 32 200 L 33 197 L 52 217 L 69 215 L 76 205 L 79 218 L 84 210 L 87 215 L 94 215 L 94 230 L 100 238 L 130 239 L 141 213 L 146 213 L 149 222 L 152 209 L 160 205 L 168 214 L 180 217 L 199 199 L 202 190 L 195 179 L 196 164 L 194 176 L 190 171 L 201 149 L 221 144 L 223 112 L 197 100 L 191 81 L 203 57 L 182 34 L 159 47 L 139 36 L 132 13 Z M 129 219 L 131 221 L 130 225 L 128 227 L 127 225 Z M 104 212 L 103 213 L 104 219 L 105 220 L 104 225 L 101 216 Z M 132 208 L 133 211 L 132 217 L 130 219 L 130 215 L 129 213 Z M 44 196 L 47 202 L 43 198 Z M 191 194 L 192 196 L 189 199 L 188 197 Z M 59 193 L 62 192 L 66 193 L 62 196 Z M 60 180 L 61 178 L 63 180 Z M 88 175 L 92 178 L 88 178 Z M 62 174 L 63 172 L 65 174 Z M 57 173 L 58 171 L 60 170 L 62 172 L 60 174 Z M 75 167 L 75 172 L 77 172 L 76 177 L 77 189 L 81 189 L 82 194 L 78 195 L 77 192 L 75 195 L 74 190 L 72 190 L 71 189 L 56 190 L 51 189 L 41 191 L 40 189 L 43 184 L 46 181 L 50 186 L 58 186 L 62 183 L 64 185 L 70 186 L 73 185 L 73 180 L 72 177 L 67 175 L 72 172 L 71 170 L 67 169 L 66 167 Z M 94 159 L 95 157 L 99 157 L 101 159 L 105 158 L 115 160 L 110 158 L 123 158 L 118 160 L 120 160 L 121 159 L 126 159 L 129 157 L 133 157 L 134 159 L 136 159 L 136 157 L 139 159 L 140 157 L 146 158 L 143 160 L 137 161 L 136 164 L 133 166 L 134 169 L 130 170 L 125 170 L 121 172 L 116 172 L 114 170 L 110 171 L 107 167 L 99 165 L 97 163 L 96 160 Z M 69 155 L 71 157 L 71 161 L 68 157 Z M 134 155 L 136 154 L 138 156 Z M 189 156 L 183 168 L 183 173 L 192 190 L 184 191 L 184 193 L 187 192 L 188 194 L 185 199 L 179 200 L 179 206 L 183 202 L 186 202 L 178 209 L 167 201 L 169 199 L 175 203 L 173 202 L 174 199 L 164 194 L 166 192 L 148 193 L 151 194 L 149 196 L 139 197 L 138 200 L 125 211 L 128 215 L 122 225 L 112 224 L 106 220 L 108 219 L 105 218 L 104 215 L 105 208 L 103 207 L 103 200 L 99 198 L 101 198 L 101 194 L 86 195 L 79 185 L 81 182 L 78 172 L 80 169 L 86 174 L 84 175 L 81 173 L 86 180 L 91 181 L 91 184 L 113 186 L 113 184 L 128 183 L 132 181 L 137 182 L 126 185 L 131 185 L 148 174 L 159 163 L 166 152 L 167 154 L 163 161 L 167 159 L 167 155 L 180 154 L 183 158 L 181 167 L 186 156 Z M 112 149 L 114 147 L 121 150 Z M 42 147 L 50 146 L 52 148 L 44 149 Z M 14 147 L 20 147 L 23 149 L 19 150 L 16 149 Z M 135 151 L 142 143 L 143 147 L 146 145 L 147 145 L 148 147 L 152 147 L 151 150 L 147 150 L 144 152 L 140 151 L 139 152 Z M 11 143 L 13 148 L 11 147 Z M 144 140 L 145 142 L 143 144 L 142 142 Z M 66 146 L 65 149 L 62 150 L 54 147 L 60 148 L 63 146 L 54 144 L 43 144 L 41 142 L 36 143 L 29 142 L 24 140 L 26 138 L 31 139 L 34 136 L 48 134 L 61 134 L 63 136 L 64 142 Z M 145 133 L 148 133 L 147 136 Z M 163 131 L 162 137 L 161 133 Z M 162 125 L 164 127 L 160 128 L 158 130 L 157 130 L 156 132 L 159 135 L 159 137 L 150 145 L 148 140 L 150 139 L 150 134 L 153 130 L 151 130 L 149 128 L 149 130 L 147 132 L 145 127 L 147 125 Z M 98 127 L 99 125 L 139 128 L 139 129 L 135 129 L 130 134 L 129 137 L 127 137 L 125 139 L 120 141 L 115 141 L 114 139 L 111 139 L 110 138 L 101 135 L 102 135 L 102 132 L 104 129 L 102 129 Z M 17 125 L 19 123 L 61 125 L 62 129 L 45 129 L 43 131 L 40 131 L 39 134 L 29 134 L 23 133 L 20 130 L 18 132 Z M 97 122 L 98 127 L 96 130 L 98 132 L 95 134 L 94 131 Z M 157 120 L 159 120 L 160 123 L 156 122 Z M 70 122 L 71 120 L 73 122 Z M 136 116 L 138 118 L 135 122 Z M 87 115 L 88 121 L 86 122 L 85 124 L 86 125 L 84 128 L 85 134 L 88 134 L 88 138 L 86 137 L 83 141 L 81 146 L 79 147 L 77 145 L 77 141 L 75 140 L 73 137 L 72 140 L 71 137 L 71 134 L 75 133 L 73 131 L 78 129 L 72 128 L 71 131 L 70 127 L 72 125 L 80 125 Z M 63 112 L 63 116 L 60 114 L 54 118 L 52 118 L 50 116 L 48 116 L 46 117 L 41 123 L 24 123 L 22 121 L 24 119 L 25 120 L 30 119 L 29 117 L 32 114 L 34 114 L 35 116 L 37 115 L 35 114 L 37 112 L 42 110 L 52 110 L 61 111 Z M 170 109 L 171 111 L 173 112 L 173 116 L 170 116 L 169 114 Z M 101 119 L 104 113 L 103 112 L 109 107 L 110 109 L 112 108 L 113 106 L 115 106 L 112 107 L 106 106 L 108 104 L 111 103 L 122 103 L 130 107 L 131 111 L 127 108 L 126 109 L 123 107 L 124 110 L 119 112 L 117 116 L 120 120 L 123 120 L 121 116 L 123 116 L 121 114 L 124 113 L 125 114 L 129 113 L 131 119 L 134 118 L 133 121 L 131 123 L 127 122 L 126 120 L 123 123 L 118 124 L 107 123 L 110 121 L 108 121 L 107 123 L 103 122 Z M 157 102 L 159 104 L 162 111 L 159 113 Z M 42 103 L 44 100 L 46 104 L 47 102 L 50 101 L 53 102 L 52 104 L 56 104 L 59 106 L 61 105 L 62 107 L 60 109 L 56 110 L 51 107 L 44 107 L 42 108 Z M 154 97 L 155 101 L 153 99 Z M 83 96 L 84 98 L 82 100 L 78 101 L 77 99 L 81 95 Z M 152 94 L 153 98 L 151 96 Z M 37 90 L 38 93 L 36 95 L 36 92 Z M 145 89 L 147 88 L 149 93 L 147 92 Z M 50 85 L 51 87 L 49 89 L 48 87 Z M 39 85 L 40 88 L 38 90 L 38 87 Z M 140 85 L 142 84 L 144 86 L 142 87 Z M 182 79 L 182 85 L 180 82 Z M 80 104 L 89 103 L 88 99 L 84 97 L 85 94 L 88 94 L 88 91 L 91 88 L 89 87 L 93 83 L 96 91 L 98 90 L 98 82 L 99 80 L 105 77 L 109 78 L 108 82 L 106 80 L 105 81 L 108 84 L 108 82 L 111 80 L 115 80 L 119 82 L 121 80 L 123 82 L 126 80 L 127 83 L 133 83 L 137 85 L 139 89 L 141 88 L 142 90 L 145 90 L 147 94 L 149 95 L 150 99 L 145 100 L 146 102 L 148 103 L 153 102 L 157 105 L 152 108 L 142 109 L 137 101 L 141 101 L 144 98 L 146 98 L 147 96 L 140 97 L 138 95 L 136 95 L 132 91 L 124 92 L 119 88 L 119 85 L 113 90 L 111 88 L 104 89 L 104 91 L 99 96 L 97 100 L 99 101 L 94 106 L 93 104 L 95 101 L 95 96 L 93 97 L 91 105 L 88 109 Z M 110 77 L 123 79 L 122 78 L 112 79 Z M 120 68 L 121 66 L 124 66 L 128 67 L 131 69 L 126 70 Z M 110 68 L 112 66 L 115 66 L 118 68 Z M 43 66 L 44 70 L 42 68 Z M 29 55 L 30 58 L 28 60 L 27 57 Z M 59 48 L 61 47 L 64 50 L 62 51 Z M 60 47 L 58 48 L 56 46 L 52 46 L 48 52 L 41 58 L 40 56 L 46 49 L 54 42 Z M 67 42 L 69 41 L 71 43 L 72 43 L 71 46 Z M 90 38 L 88 40 L 78 44 L 76 46 L 72 46 L 82 39 L 87 37 Z M 42 58 L 52 58 L 50 51 L 53 53 L 53 47 L 67 56 L 66 51 L 74 56 L 84 52 L 79 57 L 97 47 L 92 47 L 100 42 L 104 22 L 108 21 L 107 24 L 112 19 L 123 21 L 110 23 L 124 23 L 128 35 L 127 20 L 133 42 L 146 48 L 146 51 L 141 49 L 160 56 L 182 43 L 196 59 L 179 84 L 184 90 L 184 86 L 190 98 L 189 102 L 184 92 L 185 101 L 194 109 L 206 111 L 210 115 L 203 115 L 213 119 L 210 133 L 191 143 L 213 137 L 215 115 L 216 137 L 192 145 L 190 151 L 170 151 L 167 147 L 171 134 L 170 118 L 175 121 L 174 109 L 184 108 L 169 109 L 150 75 L 144 77 L 133 71 L 143 73 L 139 69 L 119 63 L 91 66 L 85 69 L 85 74 L 73 78 L 60 92 L 52 95 L 54 70 L 47 66 L 54 64 Z" fill="#92ffab" fill-rule="evenodd" filter="url(#glow-settings)"/>
</svg>