<svg xmlns="http://www.w3.org/2000/svg" width="205" height="267" viewBox="0 0 205 267" fill="none">
  <defs>
    <filter id="glow-standings" x="-20%" y="-20%" width="140%" height="140%">
      <feGaussianBlur stdDeviation="2.2" result="blur"/>
      <feMerge>
        <feMergeNode in="blur"/>
        <feMergeNode in="SourceGraphic"/>
      </feMerge>
    </filter>
  </defs>
  <path d="M 195 176 L 191 176 L 191 177 L 187 179 L 187 181 L 190 181 L 195 179 Z M 187 163 L 186 165 L 187 168 L 204 170 L 202 172 L 200 170 L 200 173 L 204 174 L 203 166 L 200 165 L 204 163 L 204 161 L 202 162 L 198 161 L 194 163 L 189 162 Z M 188 135 L 199 143 L 202 143 L 196 140 L 191 136 Z M 4 137 L 8 141 L 11 141 L 16 139 L 19 135 L 16 134 L 14 135 L 10 134 L 4 135 Z M 171 129 L 168 130 L 165 129 L 165 132 L 168 131 L 170 133 L 167 134 L 167 140 L 165 141 L 164 144 L 166 145 L 168 145 L 176 138 L 176 135 Z M 172 133 L 173 138 L 169 139 L 170 133 Z M 197 129 L 197 135 L 199 133 L 200 135 L 202 135 L 204 133 L 204 128 Z M 22 128 L 22 131 L 24 131 L 26 134 L 28 133 L 27 128 Z M 1 128 L 3 131 L 10 130 L 6 127 L 3 127 Z M 172 125 L 177 131 L 179 132 L 182 130 L 180 128 L 175 128 Z M 3 94 L 1 95 L 1 100 L 3 102 L 0 103 L 0 105 L 2 107 L 0 110 L 0 115 L 3 114 L 3 110 L 5 102 L 5 98 Z M 204 24 L 194 25 L 186 16 L 178 22 L 174 14 L 168 22 L 157 6 L 148 8 L 154 4 L 139 3 L 108 12 L 101 5 L 99 14 L 58 8 L 0 31 L 0 67 L 5 69 L 0 79 L 19 82 L 1 89 L 12 92 L 7 122 L 16 118 L 26 121 L 19 125 L 27 124 L 26 105 L 17 106 L 25 91 L 31 122 L 35 117 L 35 125 L 42 124 L 32 129 L 38 143 L 45 128 L 51 132 L 51 151 L 64 155 L 69 150 L 76 158 L 66 157 L 61 164 L 78 171 L 69 177 L 76 177 L 75 187 L 55 205 L 63 211 L 57 214 L 65 215 L 52 221 L 57 225 L 53 231 L 61 235 L 43 234 L 56 241 L 54 259 L 105 256 L 110 266 L 114 256 L 144 258 L 132 257 L 170 243 L 155 236 L 163 230 L 160 223 L 149 223 L 164 217 L 149 214 L 154 205 L 125 185 L 134 173 L 125 166 L 129 160 L 138 162 L 142 149 L 155 143 L 149 136 L 163 134 L 153 131 L 164 127 L 164 115 L 169 113 L 170 120 L 173 100 L 162 104 L 192 75 L 198 49 L 203 67 L 188 87 L 204 86 L 204 55 L 197 45 L 204 38 L 190 33 L 203 31 Z M 98 248 L 102 247 L 103 246 L 110 248 Z M 148 210 L 149 212 L 147 214 L 143 215 L 143 212 L 144 211 Z M 147 206 L 152 208 L 147 209 Z M 81 178 L 82 176 L 86 178 L 83 180 Z M 67 160 L 70 160 L 72 161 L 72 164 L 66 162 Z M 79 159 L 81 160 L 80 163 L 78 161 Z M 84 148 L 86 146 L 88 148 Z M 74 148 L 70 149 L 72 146 Z M 139 141 L 137 143 L 133 144 L 131 146 L 129 146 L 129 150 L 126 150 L 127 154 L 125 156 L 123 150 L 124 148 L 118 150 L 116 146 L 122 143 L 123 146 L 128 140 L 133 141 L 136 139 Z M 103 141 L 104 139 L 107 140 Z M 139 140 L 141 139 L 142 137 L 144 139 L 151 142 L 144 142 Z M 100 135 L 102 137 L 100 138 Z M 40 134 L 38 138 L 38 136 Z M 134 131 L 134 135 L 133 135 L 132 137 L 128 137 Z M 68 121 L 71 124 L 71 128 L 67 128 L 65 125 Z M 140 120 L 142 126 L 140 125 L 137 128 L 136 126 Z M 80 126 L 87 124 L 91 125 L 95 119 L 96 125 L 116 125 L 119 122 L 123 124 L 125 124 L 128 126 L 126 128 L 95 130 L 95 135 L 91 130 L 83 129 Z M 154 114 L 156 119 L 154 118 Z M 100 110 L 102 113 L 100 115 L 98 112 Z M 90 108 L 92 110 L 93 116 L 89 111 Z M 24 108 L 24 113 L 21 113 L 20 115 L 22 117 L 20 118 L 18 116 L 19 110 L 23 111 Z M 38 97 L 41 100 L 40 104 L 36 99 Z M 91 96 L 92 94 L 94 96 Z M 85 95 L 86 93 L 88 95 Z M 32 93 L 33 95 L 33 98 L 36 99 L 36 102 L 34 102 L 31 106 L 32 102 L 30 100 L 29 96 Z M 23 92 L 21 93 L 20 95 L 17 95 L 16 96 L 13 94 L 15 92 L 19 92 L 20 91 Z M 91 89 L 93 91 L 91 93 L 89 91 Z M 72 80 L 75 80 L 74 83 Z M 158 80 L 160 78 L 162 81 Z M 83 78 L 86 78 L 88 80 L 90 78 L 101 78 L 106 75 L 110 78 L 114 77 L 117 80 L 124 79 L 126 82 L 123 83 L 111 83 L 107 81 L 104 83 L 92 83 L 105 84 L 107 85 L 107 88 L 106 87 L 104 88 L 105 90 L 115 88 L 121 89 L 123 91 L 120 94 L 117 93 L 115 95 L 113 100 L 113 106 L 115 108 L 111 109 L 110 105 L 108 105 L 107 112 L 109 110 L 111 114 L 109 116 L 105 116 L 103 115 L 103 112 L 100 110 L 102 107 L 99 105 L 98 101 L 96 99 L 93 98 L 94 96 L 96 95 L 95 91 L 97 90 L 96 88 L 94 88 L 91 86 L 86 87 L 84 89 L 82 84 Z M 28 75 L 31 81 L 27 77 Z M 111 71 L 113 73 L 112 76 L 110 74 Z M 185 68 L 186 70 L 183 74 L 182 71 Z M 94 69 L 97 68 L 99 70 L 96 71 Z M 91 68 L 94 70 L 92 72 L 90 70 Z M 160 68 L 163 66 L 166 68 L 163 71 L 162 69 Z M 115 65 L 117 67 L 116 70 L 112 72 L 111 69 L 112 67 Z M 161 65 L 163 63 L 167 64 Z M 11 62 L 13 64 L 14 70 L 17 76 L 14 76 L 13 73 L 14 75 L 11 76 L 10 72 L 12 71 L 10 67 Z M 89 60 L 88 63 L 86 61 Z M 79 61 L 80 59 L 82 61 Z M 118 50 L 121 54 L 123 54 L 125 56 L 123 58 L 121 57 L 116 57 Z M 187 47 L 189 49 L 188 54 Z M 92 45 L 96 47 L 94 47 Z M 98 44 L 100 43 L 105 44 L 108 46 L 111 43 L 113 46 L 107 52 L 107 54 L 111 57 L 114 56 L 116 58 L 114 61 L 114 64 L 112 64 L 109 62 L 104 66 L 103 64 L 101 64 L 97 67 L 94 65 L 95 64 L 92 63 L 90 61 L 92 59 L 93 54 L 94 55 L 96 53 L 96 50 L 101 48 L 97 46 Z M 97 39 L 101 41 L 99 41 Z M 77 33 L 83 32 L 85 34 L 89 33 L 91 35 L 94 33 L 100 33 L 109 35 L 109 33 L 127 34 L 129 33 L 129 40 L 127 37 L 124 36 L 120 39 L 101 36 L 94 38 L 83 36 L 78 36 Z M 142 3 L 142 7 L 140 5 Z" fill="#92ffab" fill-rule="evenodd" filter="url(#glow-standings)"/>
</svg>