<svg xmlns="http://www.w3.org/2000/svg" width="238" height="200" viewBox="0 0 238 200" fill="none">
  <defs>
    <filter id="glow-teams" x="-20%" y="-20%" width="140%" height="140%">
      <feGaussianBlur stdDeviation="2.2" result="blur"/>
      <feMerge>
        <feMergeNode in="blur"/>
        <feMergeNode in="SourceGraphic"/>
      </feMerge>
    </filter>
  </defs>
  <path d="M 37 160 L 33 160 L 33 162 L 35 164 Z M 229 131 L 230 133 L 234 134 L 235 132 L 237 133 L 237 131 Z M 230 118 L 229 120 L 229 122 L 231 123 L 230 127 L 231 125 L 234 124 L 234 122 Z M 82 115 L 82 119 L 85 119 L 87 117 L 87 116 L 89 115 L 91 117 L 94 117 L 94 114 L 91 113 Z M 122 118 L 123 120 L 125 119 L 127 120 L 126 118 L 132 118 L 130 116 L 133 116 L 136 114 L 133 113 L 133 112 L 125 112 L 123 113 Z M 46 92 L 46 96 L 50 96 L 51 95 L 54 96 L 55 94 L 55 92 Z M 237 68 L 230 70 L 235 65 L 228 65 L 224 59 L 221 68 L 209 63 L 212 53 L 202 49 L 212 45 L 202 45 L 198 50 L 197 32 L 205 36 L 208 31 L 204 34 L 196 21 L 183 17 L 189 18 L 189 14 L 173 14 L 181 10 L 160 12 L 145 28 L 142 22 L 136 26 L 137 18 L 130 19 L 132 16 L 120 16 L 119 21 L 108 23 L 99 13 L 91 22 L 80 22 L 78 26 L 65 16 L 33 17 L 21 34 L 24 38 L 20 40 L 25 41 L 17 47 L 21 59 L 10 72 L 11 80 L 0 82 L 13 82 L 0 91 L 0 142 L 4 148 L 0 146 L 0 153 L 37 157 L 49 168 L 43 171 L 50 172 L 43 178 L 52 171 L 59 176 L 56 178 L 88 186 L 136 187 L 127 186 L 172 177 L 182 169 L 177 165 L 175 172 L 176 160 L 195 161 L 236 145 L 237 138 L 227 136 L 227 112 L 235 108 L 237 99 L 228 98 L 237 91 L 223 91 L 220 85 L 237 84 Z M 101 177 L 103 176 L 105 178 Z M 128 176 L 131 174 L 133 177 Z M 94 175 L 97 174 L 100 176 L 96 177 Z M 192 158 L 198 158 L 194 160 Z M 210 153 L 210 156 L 206 157 L 202 156 Z M 62 149 L 64 151 L 61 153 Z M 184 144 L 186 149 L 188 148 L 188 151 L 184 151 L 182 149 L 182 146 Z M 178 144 L 179 142 L 181 144 Z M 41 139 L 43 142 L 40 141 Z M 228 137 L 230 139 L 230 141 L 228 144 Z M 179 132 L 181 134 L 178 140 Z M 52 132 L 54 134 L 53 137 L 51 135 Z M 63 131 L 64 134 L 63 135 L 64 140 L 62 144 L 61 133 Z M 214 130 L 215 128 L 217 130 Z M 38 128 L 39 126 L 43 129 Z M 149 117 L 153 117 L 151 119 Z M 17 115 L 16 118 L 13 116 Z M 8 108 L 10 116 L 8 126 Z M 227 107 L 229 106 L 231 108 L 229 109 Z M 14 104 L 17 104 L 16 109 L 15 107 L 12 106 Z M 152 118 L 151 133 L 154 133 L 156 135 L 156 140 L 159 141 L 157 151 L 159 159 L 156 164 L 140 170 L 137 169 L 129 170 L 129 172 L 131 171 L 131 174 L 128 175 L 123 172 L 115 172 L 116 169 L 109 171 L 112 174 L 101 174 L 97 171 L 99 165 L 86 171 L 74 167 L 76 165 L 88 164 L 82 163 L 74 164 L 71 160 L 73 161 L 70 152 L 72 146 L 70 144 L 71 139 L 68 136 L 70 134 L 72 136 L 74 135 L 72 129 L 79 124 L 79 122 L 81 122 L 76 116 L 82 113 L 87 105 L 89 104 L 92 106 L 94 104 L 98 105 L 99 103 L 100 105 L 106 103 L 118 104 L 116 103 L 120 102 L 123 105 L 124 103 L 125 105 L 128 104 L 130 107 L 135 107 L 135 105 L 139 106 L 141 110 L 143 108 L 145 112 L 144 116 L 145 119 L 149 121 L 147 125 L 151 123 Z M 227 97 L 227 101 L 225 99 Z M 199 99 L 201 97 L 203 99 Z M 201 101 L 204 100 L 203 98 L 206 96 L 208 96 L 211 99 L 210 103 L 203 103 Z M 193 95 L 197 95 L 195 97 Z M 19 91 L 20 93 L 18 95 L 17 93 Z M 89 92 L 91 90 L 94 91 L 92 93 Z M 62 88 L 64 87 L 76 87 L 78 88 L 80 91 Z M 140 90 L 144 87 L 167 85 L 172 80 L 175 80 L 177 85 L 176 81 L 179 81 L 180 83 L 181 81 L 186 81 L 189 84 L 190 89 L 195 89 L 193 86 L 197 86 L 197 88 L 199 88 L 200 85 L 201 88 L 211 89 L 211 92 L 198 94 L 183 91 L 183 96 L 185 98 L 186 96 L 193 97 L 193 101 L 196 98 L 201 102 L 197 108 L 201 108 L 201 104 L 210 108 L 205 109 L 218 109 L 220 111 L 219 136 L 217 133 L 217 114 L 211 117 L 210 122 L 215 121 L 217 124 L 206 132 L 211 134 L 209 136 L 197 138 L 192 142 L 185 141 L 184 144 L 182 140 L 183 131 L 188 132 L 190 130 L 179 126 L 179 108 L 178 115 L 175 118 L 178 120 L 173 126 L 169 117 L 172 115 L 172 117 L 173 113 L 170 111 L 170 108 L 165 103 L 164 99 L 168 94 L 167 92 L 141 92 Z M 53 76 L 54 78 L 57 79 L 57 81 L 61 86 L 61 88 L 59 89 L 59 92 L 65 99 L 61 103 L 56 103 L 54 100 L 49 100 L 50 103 L 47 109 L 48 109 L 48 112 L 45 114 L 45 118 L 42 121 L 37 122 L 35 125 L 36 125 L 37 127 L 35 130 L 37 132 L 38 131 L 41 135 L 39 137 L 37 137 L 35 140 L 32 142 L 26 142 L 25 138 L 28 138 L 28 136 L 26 134 L 28 132 L 26 132 L 17 128 L 29 124 L 25 120 L 19 117 L 21 114 L 19 113 L 19 111 L 21 111 L 22 106 L 24 108 L 26 108 L 26 105 L 22 102 L 21 99 L 18 100 L 15 99 L 18 97 L 22 92 L 20 90 L 27 88 L 29 86 L 32 85 L 37 86 L 41 85 L 45 82 L 48 84 L 50 83 L 51 79 Z M 203 61 L 208 61 L 205 64 Z M 199 59 L 202 61 L 200 63 L 198 61 Z M 207 55 L 206 56 L 207 57 L 203 56 Z M 102 54 L 104 52 L 113 53 L 118 56 L 120 58 L 120 60 L 122 60 L 124 56 L 128 56 L 127 59 L 124 62 L 122 63 L 119 62 L 115 66 L 114 69 L 110 69 L 112 68 L 112 66 L 109 66 L 103 61 L 104 61 L 104 57 Z M 21 52 L 21 49 L 24 50 Z M 120 40 L 121 43 L 119 45 L 116 42 Z M 114 44 L 106 44 L 104 42 L 113 40 Z M 47 40 L 50 43 L 46 42 Z M 192 39 L 191 44 L 189 42 Z M 102 40 L 104 38 L 108 39 Z M 163 43 L 165 40 L 174 41 L 178 39 L 174 37 L 183 37 L 181 40 L 184 39 L 187 42 L 185 44 L 181 44 L 176 45 L 175 46 L 167 45 Z M 107 38 L 110 36 L 114 39 Z M 50 36 L 54 38 L 52 40 L 50 39 Z M 59 31 L 60 35 L 58 33 Z M 50 33 L 51 31 L 53 33 Z M 140 32 L 141 30 L 143 32 Z M 56 29 L 58 31 L 57 35 L 55 36 L 54 34 L 56 32 L 54 31 Z M 179 33 L 178 36 L 172 37 L 174 38 L 169 39 L 165 37 L 166 35 L 164 32 L 169 28 L 174 27 Z M 166 27 L 167 29 L 164 33 L 161 32 Z M 194 22 L 195 24 L 193 25 L 191 23 Z M 90 21 L 89 25 L 87 23 Z M 97 18 L 99 20 L 98 22 L 94 23 L 94 21 Z M 62 18 L 65 17 L 68 19 L 69 23 Z M 124 16 L 125 18 L 125 21 L 123 18 Z" fill="#92ffab" fill-rule="evenodd" filter="url(#glow-teams)"/>
</svg>